# xmcd CD database file
#
# Track frame offsets:
#	150
#	23883
#	42914
#	66132
#	86055
#	107879
#	122291
#
# Disc length: 1852 seconds
#
# Revision: 0
# Processed by: cddbd v1.5.2PL0 Copyright (c) Steve Scherf et al.
# Submitted via: CDex 1.51
#
DISCID=54073a07
DTITLE=Queentet Jazz - Queentet Jazz
DYEAR=2005
DGENRE=Jazz
TTITLE0=Simple Matter Of Conviction
TTITLE1=Strollin'
TTITLE2=The Quota
TTITLE3=Alone In The Morning
TTITLE4=All The Things You Are
TTITLE5=Funkalero
TTITLE6=Pentatônica
EXTD=YEAR: 2005
EXTT0=
EXTT1=
EXTT2=
EXTT3=
EXTT4=
EXTT5=
EXTT6=
PLAYORDER=
